<svg xmlns="http://www.w3.org/2000/svg" width="246" height="64" viewBox="0 0 246 64"><g><path d="M242.6 49.93a2.8 2.8 0 0 0-1.37-1 4.61 4.61 0 0 0-1.8-.34 5.34 5.34 0 0 0-1.2.17 2 2 0 0 0-1 .52 2.41 2.41 0 0 0-.77.85 2.79 2.79 0 0 0-.26 1.2 1.78 1.78 0 0 0 .26 1 2.18 2.18 0 0 0 .6.68 2.57 2.57 0 0 0 .86.43c.34.09.6.17.85.26a10.3 10.3 0 0 1 1.72.51.94.94 0 0 1 .6.95 1.43 1.43 0 0 1-.17.6c-.09.17-.26.25-.43.42a1.07 1.07 0 0 1-.52.17c-.17 0-.42.09-.6.09a2.54 2.54 0 0 1-1.37-.34 2.29 2.29 0 0 1-.94-.86l-1.2 1a4.11 4.11 0 0 0 1.54 1.2 5.21 5.21 0 0 0 2 .43 6.9 6.9 0 0 0 1.29-.17 2.64 2.64 0 0 0 1.11-.52 2.44 2.44 0 0 0 .78-.85 2.86 2.86 0 0 0 .25-1.29 2.26 2.26 0 0 0-.25-1 5.11 5.11 0 0 0-.6-.77c-.31-.19-.62-.36-.95-.52a4.86 4.86 0 0 0-1.2-.34 5.33 5.33 0 0 1-1.45-.51.86.86 0 0 1-.52-.86 1.28 1.28 0 0 1 .17-.51c.09-.18.26-.26.35-.35a1.28 1.28 0 0 1 .51-.17c.17 0 .43-.08.6-.08a2 2 0 0 1 1.2.34 2.44 2.44 0 0 1 .86.77l1.11-1.11zm-9-6.33h-1.71v13.95h1.71zm-5.91 9.75v.43a2.5 2.5 0 0 1-.69 1.8 2.26 2.26 0 0 1-1.89.77 1.74 1.74 0 0 1-.68-.08c-.17-.09-.43-.09-.6-.26a1.11 1.11 0 0 1-.43-.43 1.46 1.46 0 0 1-.17-.68 1 1 0 0 1 .34-.86 2 2 0 0 1 .94-.51c.35-.09.77-.17 1.29-.26s.94-.09 1.37-.09h.51v.17zm0-1.28a20.68 20.68 0 0 0-2.23.09 6.94 6.94 0 0 0-2 .43 3.15 3.15 0 0 0-1.38.85 2.44 2.44 0 0 0-.48 1.56 2.09 2.09 0 0 0 .34 1.29 2.51 2.51 0 0 0 .77.85 5.76 5.76 0 0 0 1 .43 4.74 4.74 0 0 0 1.12.17 3.64 3.64 0 0 0 1.71-.43 2.92 2.92 0 0 0 1.2-1.11h.09a6.16 6.16 0 0 0 .17 1.28h1.54a2.5 2.5 0 0 1-.09-.77V51.9a3.58 3.58 0 0 0-.25-1.37 3 3 0 0 0-.69-1.11 3.52 3.52 0 0 0-1.11-.77 4.8 4.8 0 0 0-1.63-.26 5.11 5.11 0 0 0-2 .34 4.74 4.74 0 0 0-1.55.94l.95 1.12a5.65 5.65 0 0 1 1.11-.77 3.79 3.79 0 0 1 1.37-.26 2.52 2.52 0 0 1 1.55.43 1.68 1.68 0 0 1 .6 1.45v.43zm-15.95-3.34c0 .26.09.6.09.94v7.79h1.71v-4.62a3.12 3.12 0 0 1 .69-2.05 2.12 2.12 0 0 1 1.71-.77 1.86 1.86 0 0 1 1 .25 2 2 0 0 1 .6.6 2.54 2.54 0 0 1 .34.86 4 4 0 0 1 .09 1v4.88h1.71v-5.4a5.78 5.78 0 0 0-.17-1.37 4.43 4.43 0 0 0-.6-1.11 2.35 2.35 0 0 0-1-.77 3.85 3.85 0 0 0-1.46-.26 4.21 4.21 0 0 0-.94.17 2.28 2.28 0 0 0-.78.35c-.25.17-.42.34-.68.51a1.87 1.87 0 0 0-.43.68h-.09v-.69a2.19 2.19 0 0 0-.08-.76h-1.72v-.26zm-3.85 5.57a6.5 6.5 0 0 1-.6 1 2.7 2.7 0 0 1-.95.69 3 3 0 0 1-1.28.26 3.58 3.58 0 0 1-1.29-.26 3.74 3.74 0 0 1-.94-.69 2.93 2.93 0 0 1-.6-1 2.62 2.62 0 0 1-.17-1.2 4.83 4.83 0 0 1 .17-1.2 6.59 6.59 0 0 1 .6-1 2.67 2.67 0 0 1 .94-.69 2.83 2.83 0 0 1 1.29-.25 3.51 3.51 0 0 1 1.28.25 3.79 3.79 0 0 1 .95.69 3.13 3.13 0 0 1 .6 1 4.26 4.26 0 0 1 0 2.4zm1.63-3a4.41 4.41 0 0 0-2.58-2.4 5.32 5.32 0 0 0-3.77 0 3.57 3.57 0 0 0-1.45.94 4.4 4.4 0 0 0-1 1.46 5.29 5.29 0 0 0 0 3.76 4.4 4.4 0 0 0 1 1.46 3.79 3.79 0 0 0 1.45.94 5.43 5.43 0 0 0 3.77 0 4.74 4.74 0 0 0 1.55-.94 6 6 0 0 0 1-1.46 4.61 4.61 0 0 0 .34-1.88 4.2 4.2 0 0 0-.35-1.88zm-11.15-6.51a1.09 1.09 0 0 0-.85-.34.87.87 0 0 0-.78.34 1.08 1.08 0 0 0-.34.77.84.84 0 0 0 .34.77 1 1 0 0 0 .78.34 1.06 1.06 0 0 0 .85-.34 1 1 0 0 0 .35-.77 1.09 1.09 0 0 0-.35-.77zm.09 3.94h-1.72v8.73h1.72v-8.73zm-4.37 1.2a2.8 2.8 0 0 0-1.37-1 4.5 4.5 0 0 0-1.8-.34 5.34 5.34 0 0 0-1.2.17 1.9 1.9 0 0 0-1 .51 2.35 2.35 0 0 0-.77.86 2.65 2.65 0 0 0-.26 1.2 1.78 1.78 0 0 0 .26 1 2.17 2.17 0 0 0 .6.68 2.62 2.62 0 0 0 .85.43c.35.09.6.17.86.26a10.19 10.19 0 0 1 1.71.51.92.92 0 0 1 .6.94 1.16 1.16 0 0 1-.17.6c-.08.17-.25.26-.43.43a1.14 1.14 0 0 1-.51.17c-.17 0-.43.09-.6.09a2.52 2.52 0 0 1-1.37-.34 2.3 2.3 0 0 1-.94-.86l-1.2 1a4.32 4.32 0 0 0 1.54 1.2 4.94 4.94 0 0 0 2 .42 6.34 6.34 0 0 0 1.29-.17 2.62 2.62 0 0 0 1.11-.51 2.36 2.36 0 0 0 .77-.86 3 3 0 0 0 .26-1.28 2.31 2.31 0 0 0-.26-1 4.84 4.84 0 0 0-.6-.77 8.54 8.54 0 0 0-.94-.51 4.68 4.68 0 0 0-1.2-.34 5.41 5.41 0 0 1-1.46-.52.84.84 0 0 1-.51-.85 1.07 1.07 0 0 1 .17-.52c.08-.17.25-.25.34-.34a1.34 1.34 0 0 1 .51-.17c.18 0 .43-.09.6-.09a1.9 1.9 0 0 1 1.2.35 2.28 2.28 0 0 1 .86.77l1.12-1.12zm-8.58 0a2.72 2.72 0 0 0-1.37-1 4.44 4.44 0 0 0-1.8-.34 5.51 5.51 0 0 0-1.2.17 2 2 0 0 0-1 .51 2.54 2.54 0 0 0-.77.86 2.78 2.78 0 0 0-.25 1.2 1.86 1.86 0 0 0 .25 1 2.45 2.45 0 0 0 .6.68 2.78 2.78 0 0 0 .86.43c.34.09.6.17.86.26a10.19 10.19 0 0 1 1.71.51.92.92 0 0 1 .6.94 1.16 1.16 0 0 1-.17.6c-.08.17-.26.26-.43.43a1 1 0 0 1-.51.17c-.17 0-.43.09-.6.09a2.52 2.52 0 0 1-1.37-.34 2.32 2.32 0 0 1-.95-.86l-1.2 1a4.14 4.14 0 0 0 1.55 1.2 5.13 5.13 0 0 0 2 .43 6.91 6.91 0 0 0 1.28-.17 2.74 2.74 0 0 0 1.12-.52 2.51 2.51 0 0 0 .77-.85 3 3 0 0 0 .26-1.29 2.41 2.41 0 0 0-.26-1 4.54 4.54 0 0 0-.6-.77c-.31-.19-.62-.36-.94-.52a5.12 5.12 0 0 0-1.2-.34 5.39 5.39 0 0 1-1.46-.51.86.86 0 0 1-.52-.86 1.16 1.16 0 0 1 .18-.51c.08-.18.25-.26.34-.35a1.34 1.34 0 0 1 .51-.17c.17 0 .43-.08.6-.08a2 2 0 0 1 1.2.34 2.36 2.36 0 0 1 .86.77l1.11-1.11zm-8.65 1.28a4.2 4.2 0 0 0-.86-1.45 3.24 3.24 0 0 0-1.37-.94 5.59 5.59 0 0 0-1.71-.34 4.44 4.44 0 0 0-1.8.34 5.22 5.22 0 0 0-1.46.94 4.31 4.31 0 0 0-.94 1.45 5.32 5.32 0 0 0 0 3.77 4.12 4.12 0 0 0 2.4 2.4 4.48 4.48 0 0 0 1.88.34 5.8 5.8 0 0 0 2.14-.43 4 4 0 0 0 1.63-1.36l-1.2-1a3.73 3.73 0 0 1-1 1 2.88 2.88 0 0 1-1.54.42 4.59 4.59 0 0 1-1.11-.17 3 3 0 0 1-1.46-1.45 2.31 2.31 0 0 1-.26-1h7v-.51a6.31 6.31 0 0 0-.34-2.01zm-6.69 1.12a1.65 1.65 0 0 1 .26-.94 1.76 1.76 0 0 1 .6-.77 1.84 1.84 0 0 1 .85-.52 2.16 2.16 0 0 1 1-.17 3.27 3.27 0 0 1 1 .17 5.77 5.77 0 0 1 .77.52 3 3 0 0 1 .43.77 3.32 3.32 0 0 1 .17.94zm-2.83-3.6h-2.06v-1.8a2.5 2.5 0 0 1 .09-.77 1 1 0 0 1 .26-.68 1.49 1.49 0 0 1 .51-.52 1.88 1.88 0 0 1 .77-.17h.43c.17 0 .26.09.43.09l.17-1.46a4.59 4.59 0 0 0-1.11-.17 4.23 4.23 0 0 0-1.54.26 2.32 2.32 0 0 0-1 .77 4.43 4.43 0 0 0-.6 1.11 7.2 7.2 0 0 0-.18 1.46v1.88h-1.71v1.46h1.71v7.36h1.72v-7.36h2.06v-1.46zM159 54.3a6.5 6.5 0 0 1-.6 1 2.62 2.62 0 0 1-1 .69 3 3 0 0 1-1.28.26 3.58 3.58 0 0 1-1.29-.26 3.92 3.92 0 0 1-.94-.69 2.93 2.93 0 0 1-.6-1 2.62 2.62 0 0 1-.17-1.2 4.83 4.83 0 0 1 .17-1.2 6.59 6.59 0 0 1 .6-1 2.67 2.67 0 0 1 .94-.69 2.89 2.89 0 0 1 1.29-.25 3.47 3.47 0 0 1 1.28.25 3.79 3.79 0 0 1 1 .69 3 3 0 0 1 .6 1 2.87 2.87 0 0 1 .17 1.2 5.51 5.51 0 0 1-.17 1.2zm1.63-3a4.55 4.55 0 0 0-1-1.46 4.64 4.64 0 0 0-1.55-.94 5.32 5.32 0 0 0-3.77 0 3.57 3.57 0 0 0-1.45.94 4.4 4.4 0 0 0-1 1.46 5.29 5.29 0 0 0 0 3.76 4.4 4.4 0 0 0 1 1.46 3.87 3.87 0 0 0 1.45.94 5.32 5.32 0 0 0 3.77 0 4.64 4.64 0 0 0 1.55-.94 5.89 5.89 0 0 0 1-1.45 4.69 4.69 0 0 0 .34-1.89 4.06 4.06 0 0 0-.34-1.88zm-14.49-.69v6.85h1.71v-4.62a4.54 4.54 0 0 1 .18-1 2.81 2.81 0 0 1 .42-.85 1.85 1.85 0 0 1 .78-.6 2.83 2.83 0 0 1 1.88-.17l.09-1.63a1.8 1.8 0 0 0-.69-.09 3.57 3.57 0 0 0-1.63.43 3.22 3.22 0 0 0-1.11 1.29h-.09v-.72a2.22 2.22 0 0 0-.08-.77H146a4.22 4.22 0 0 0 .08.94 5 5 0 0 1 .09.95zm-8.2-4.61h2a5.35 5.35 0 0 1 1.2.08 3.3 3.3 0 0 1 .95.35 1.22 1.22 0 0 1 .6.68 1.86 1.86 0 0 1 .25 1 2.07 2.07 0 0 1-.25 1 2.6 2.6 0 0 1-.6.68 3 3 0 0 1-.95.34 4.82 4.82 0 0 1-1.2.09h-2zm-1.8 11.55h1.8v-5.74H140a11.84 11.84 0 0 0 1.88-.17 4.22 4.22 0 0 0 1.55-.68 3 3 0 0 0 1.37-2.83 3.24 3.24 0 0 0-.34-1.62 2.94 2.94 0 0 0-1-1.12 6 6 0 0 0-1.45-.68 6.7 6.7 0 0 0-1.89-.17h-4v13zm-14.66-5.73a3.85 3.85 0 0 1 .6-.94 3.79 3.79 0 0 1 1-.69 3 3 0 0 1 2.4 0 3.74 3.74 0 0 1 .94.69 3.58 3.58 0 0 1 .6.94 2.58 2.58 0 0 1 .17 1.2 4.89 4.89 0 0 1-.17 1.2 3.58 3.58 0 0 1-.6.94 3.74 3.74 0 0 1-.94.69 3 3 0 0 1-2.4 0 3.79 3.79 0 0 1-1-.69 3.85 3.85 0 0 1-.6-.94 2.87 2.87 0 0 1-.17-1.2 6.8 6.8 0 0 1 .17-1.21zm-1.79 8.56a6.39 6.39 0 0 0 2 1.2A7.55 7.55 0 0 0 124 62a5.89 5.89 0 0 0 2.31-.43 3.12 3.12 0 0 0 1.46-1.12 3.17 3.17 0 0 0 .77-1.54 6.42 6.42 0 0 0 .26-1.8v-8.38h-1.71v1.37a3.18 3.18 0 0 0-1.37-1.2 4.7 4.7 0 0 0-1.8-.43 4 4 0 0 0-1.8.35 5.21 5.21 0 0 0-1.37.94 4 4 0 0 0-.86 1.45 5.59 5.59 0 0 0-.35 1.81 4.48 4.48 0 0 0 .35 1.8 5 5 0 0 0 .85 1.45 4.24 4.24 0 0 0 3.17 1.28 4.61 4.61 0 0 0 1.8-.42A2.76 2.76 0 0 0 127 56v1.12a6.16 6.16 0 0 1-.17 1.28 1.94 1.94 0 0 1-.51 1 4 4 0 0 1-1 .68 3.8 3.8 0 0 1-1.45.26 4.62 4.62 0 0 1-1.8-.43 4.4 4.4 0 0 1-1.46-1l-.94 1.46zm-10-11.64a4.17 4.17 0 0 0 .08.94v7.79h1.72v-4.63a3.11 3.11 0 0 1 .68-2.05 2.16 2.16 0 0 1 1.72-.77 1.86 1.86 0 0 1 1 .25 2.14 2.14 0 0 1 .6.6 2.76 2.76 0 0 1 .34.86 4 4 0 0 1 .08 1v4.88h1.72v-5.4a7 7 0 0 0-.17-1.37 4.84 4.84 0 0 0-.6-1.12 2.36 2.36 0 0 0-1-.76 3.5 3.5 0 0 0-1.46-.26 3.32 3.32 0 0 0-.94.17 2.14 2.14 0 0 0-.77.34c-.26.17-.43.34-.69.51a1.91 1.91 0 0 0-.43.69h-.08v-.69a2.47 2.47 0 0 0-.09-.76h-1.71v-.26zm-3-3.93a1.12 1.12 0 0 0-.86-.35.84.84 0 0 0-.77.35 1 1 0 0 0-.34.77.81.81 0 0 0 .34.77 1.08 1.08 0 0 0 .77.34 1.11 1.11 0 0 0 .86-.34.93.93 0 0 0 .34-.77 1.54 1.54 0 0 0-.37-.78zm0 3.93h-1.72v8.73h1.72zm-3.43 0h-1.8l-2.57 6.85-2.57-6.85H94.4l3.6 8.72h1.89l3.34-8.73zM91.57 54.3a6.5 6.5 0 0 1-.6 1 2.67 2.67 0 0 1-.97.7 3 3 0 0 1-1.29.26 3.48 3.48 0 0 1-1.25-.26 3.79 3.79 0 0 1-.95-.69 3.09 3.09 0 0 1-.6-1 2.92 2.92 0 0 1-.17-1.2 5.34 5.34 0 0 1 .17-1.2 6.59 6.59 0 0 1 .6-1 2.7 2.7 0 0 1 .95-.69 2.82 2.82 0 0 1 1.28-.25 3.57 3.57 0 0 1 1.29.25 3.74 3.74 0 0 1 .94.69 3 3 0 0 1 .6 1 4.26 4.26 0 0 1 0 2.39zm1.63-3a4.4 4.4 0 0 0-1-1.46 4.7 4.7 0 0 0-1.54-.94 5.32 5.32 0 0 0-3.77 0 3.54 3.54 0 0 0-1.46.94 4.4 4.4 0 0 0-1 1.46 5.29 5.29 0 0 0 0 3.76 4.4 4.4 0 0 0 1 1.46 3.9 3.9 0 0 0 1.46.94 5.43 5.43 0 0 0 3.77 0 4.7 4.7 0 0 0 1.54-.94 5.52 5.52 0 0 0 1-1.46 4.48 4.48 0 0 0 .34-1.88 4 4 0 0 0-.34-1.88zm-21.51-6.84h-2.83v13.1h1.8v-11l4.28 11h1.2l4.37-11v11h1.8v-13.1h-2.82l-3.86 10zM11.94 19.46h-3.6v6.16H12c2.06 0 4.63-.6 4.63-3.16-.09-2.32-1.89-3-4.72-3zM11.51 9H8.34v5.56h3.52c2.48 0 3.85-1 3.85-2.91S14.26 9 11.51 9zm1.29 21.93H2v-27h10.8c4.2 0 9.26 1.46 9.26 6.94a5.89 5.89 0 0 1-4.46 5.82v.08a6.27 6.27 0 0 1 5.57 6.34c-.08 5.77-5.23 7.82-10.37 7.82zM35.94 16.47c-2.91 0-4.45 2.4-4.45 4.88s1.54 5 4.54 5 4.54-2.48 4.54-5-1.71-4.88-4.63-4.88zm0 15.06c-5.74 0-10.54-3.94-10.54-10.19s4.8-10 10.54-10 10.63 3.85 10.63 10-4.88 10.19-10.63 10.19zM62.26 30.93V20.66c0-2.14-.52-4-2.83-4-2.14 0-3.43 1.8-3.43 4v10.27h-6.26V2H56v12.24h.09a6.19 6.19 0 0 1 5.48-2.91c5.14 0 6.94 3.94 6.94 7.79v11.72h-6.25v.09zM85.83 30.93V20.49c0-2.14-.6-4-2.83-4s-3.34 1.88-3.34 4.1v10.25h-6.35v-19h6.09v2.66h.09a6.41 6.41 0 0 1 5.65-3.17c5.15 0 7 3.94 7 7.79v11.72h-6.31v.09zM109.23 19.2a3.46 3.46 0 0 0-3.32-3.6 3.38 3.38 0 0 0-.45 0 4.09 4.09 0 0 0-4.29 3.59zm5.77 3.94h-13.8c.17 2.14 2.32 3.6 4.54 3.6a5.11 5.11 0 0 0 4.2-2l4.38 2.74c-1.8 2.56-4.8 4-8.66 4-5.74 0-10.46-3.6-10.46-10 0-6.24 4.54-10.18 10.29-10.18s9.6 3.85 9.6 10.36a8.83 8.83 0 0 1-.09 1.45zM131.43 30.93V20.49c0-2.14-.6-4-2.83-4s-3.34 1.88-3.34 4.1v10.25h-6.35v-19H125v2.66h.09a6.41 6.41 0 0 1 5.65-3.17c5.15 0 6.95 3.94 6.95 7.79v11.72h-6.26v.09zM163 30.93h-7.71L149 21.77h-.17v9.16h-6.26V2h6.26v17.63h.17l6.08-7.79h7.63l-7.37 8.65zM177 22.63h-.77c-2.75 0-5.83.34-5.83 2.57 0 1.45 1.45 2 2.74 2a3.64 3.64 0 0 0 3.94-3.32 3.21 3.21 0 0 0 0-.62v-.6zm-11.46-8.13a12.32 12.32 0 0 1 8.46-3.17c6.43 0 8.74 3.17 8.74 10v9.58H177v-2.03h-.09c-.94 1.54-3.17 2.48-5.4 2.48-3 0-6.94-1.46-6.94-6 0-5.48 6.69-6.42 12.26-6.42v-.34c0-1.89-1.46-2.74-3.43-2.74a7.13 7.13 0 0 0-4.72 2l-3.17-3.34zM211.83 30.93V20.49c0-2.14-.51-4-2.74-4s-3.17 2-3.17 4.1v10.25h-6.26V20.06c0-2.14-.86-3.51-2.74-3.51s-3.18 1.8-3.18 4.11v10.27h-6.34V11.84h6.09v2.66h.08a6.26 6.26 0 0 1 5.66-3.17 6.07 6.07 0 0 1 5.77 3.25 6.91 6.91 0 0 1 6.09-3.25c5.14 0 6.94 4.19 6.94 7.79v11.72h-6.17z" fill="#004684"/><path fill="none" d="M2 2h241.97v59.91H2z"/><path d="M233.43 16.47a4.76 4.76 0 0 0-4.63 4.88 4.71 4.71 0 0 0 4.54 4.87h.09c3 0 4.46-2.48 4.46-5s-1.46-4.79-4.46-4.79zm1.54 15a7.1 7.1 0 0 1-5.74-2.66h-.09V38h-6.25V11.84h6v2.32h.11a7.42 7.42 0 0 1 6.09-2.83c5.57 0 9 4.62 9 9.93s-3.37 10.18-9.09 10.18z" fill="#004684"/><path d="M24.46 59.52h17v-17h-17z" fill="#00a59a"/><path d="M2 59.52h17.06v-17H2z" fill="#009fe3"/><path d="M63.54 51a8.74 8.74 0 1 1-8.75-8.73A8.77 8.77 0 0 1 63.54 51z" fill="#c90107"/></g></svg>